<mxfile host="app.diagrams.net" agent="Mozilla/5.0 (Windows NT 10.0; Win64; x64) AppleWebKit/537.36 (KHTML, like Gecko) Chrome/134.0.0.0 Safari/537.36" version="26.0.16">
  <diagram id="C5RBs43oDa-KdzZeNtuy" name="Page-1">
    <mxGraphModel dx="1216" dy="525" grid="1" gridSize="10" guides="1" tooltips="1" connect="1" arrows="1" fold="1" page="1" pageScale="1" pageWidth="827" pageHeight="1169" math="0" shadow="0">
      <root>
        <mxCell id="WIyWlLk6GJQsqaUBKTNV-0" />
        <mxCell id="WIyWlLk6GJQsqaUBKTNV-1" parent="WIyWlLk6GJQsqaUBKTNV-0" />
        <mxCell id="r8dWKE7d-awLqOog2h_B-18" value="" style="rounded=0;whiteSpace=wrap;html=1;" parent="WIyWlLk6GJQsqaUBKTNV-1" vertex="1">
          <mxGeometry x="40" width="1180" height="390" as="geometry" />
        </mxCell>
        <mxCell id="zkfFHV4jXpPFQw0GAbJ--0" value="Cliente" style="swimlane;fontStyle=0;align=center;verticalAlign=top;childLayout=stackLayout;horizontal=1;startSize=26;horizontalStack=0;resizeParent=1;resizeLast=0;collapsible=1;marginBottom=0;rounded=0;shadow=0;strokeWidth=1;fillColor=#fff2cc;strokeColor=#d6b656;" parent="WIyWlLk6GJQsqaUBKTNV-1" vertex="1">
          <mxGeometry x="80" y="44" width="270" height="190" as="geometry">
            <mxRectangle x="180" y="70" width="160" height="26" as="alternateBounds" />
          </mxGeometry>
        </mxCell>
        <mxCell id="zkfFHV4jXpPFQw0GAbJ--1" value="- idCliente: number&#xa;- nomeInteiro: string&#xa;- cpf: string&#xa;- dataNascimento: Date&#xa;- email: string&#xa;- celular: string" style="text;align=left;verticalAlign=top;spacingLeft=4;spacingRight=4;overflow=hidden;rotatable=0;points=[[0,0.5],[1,0.5]];portConstraint=eastwest;fillColor=#fff2cc;strokeColor=#d6b656;" parent="zkfFHV4jXpPFQw0GAbJ--0" vertex="1">
          <mxGeometry y="26" width="270" height="94" as="geometry" />
        </mxCell>
        <mxCell id="INOXkxQGbtEHdn3JaQnM-11" value="+ listarCliente(): Array &lt;Clientes&gt;&#xa;+ cadastrarCliente(cliente:Cliente): Boolean&#xa;+ removerCliente(id_cliente: number): Boolean&#xa;+ atualizarCliente(cliente:Cliente): Boolean" style="text;align=left;verticalAlign=top;spacingLeft=4;spacingRight=4;overflow=hidden;rotatable=0;points=[[0,0.5],[1,0.5]];portConstraint=eastwest;fillColor=#fff2cc;strokeColor=#d6b656;fontStyle=4" parent="zkfFHV4jXpPFQw0GAbJ--0" vertex="1">
          <mxGeometry y="120" width="270" height="70" as="geometry" />
        </mxCell>
        <mxCell id="C5G3hQH6Iopq-bTjkAd6-1" value="Venda" style="swimlane;fontStyle=0;align=center;verticalAlign=top;childLayout=stackLayout;horizontal=1;startSize=26;horizontalStack=0;resizeParent=1;resizeLast=0;collapsible=1;marginBottom=0;rounded=0;shadow=0;strokeWidth=1;fillColor=#fff2cc;strokeColor=#d6b656;" parent="WIyWlLk6GJQsqaUBKTNV-1" vertex="1">
          <mxGeometry x="490" y="44" width="281" height="180" as="geometry">
            <mxRectangle x="180" y="70" width="160" height="26" as="alternateBounds" />
          </mxGeometry>
        </mxCell>
        <mxCell id="C5G3hQH6Iopq-bTjkAd6-2" value="- idVenda: number&#xa;- idCliente: number&#xa;- idVestuario: number&#xa;- dataVenda: Date&#xa;- statusVenda: string" style="text;align=left;verticalAlign=top;spacingLeft=4;spacingRight=4;overflow=hidden;rotatable=0;points=[[0,0.5],[1,0.5]];portConstraint=eastwest;fillColor=#fff2cc;strokeColor=#d6b656;" parent="C5G3hQH6Iopq-bTjkAd6-1" vertex="1">
          <mxGeometry y="26" width="281" height="84" as="geometry" />
        </mxCell>
        <mxCell id="C5G3hQH6Iopq-bTjkAd6-9" value="+ listarVenda(): Array &lt;Vendas&gt;&#xa;+ cadastrarVenda(venda:Venda): Boolean&#xa;+ removerVenda(id_venda: number): Boolean&#xa;+ atualizarVenda(venda:Venda): Boolean" style="text;align=left;verticalAlign=top;spacingLeft=4;spacingRight=4;overflow=hidden;rotatable=0;points=[[0,0.5],[1,0.5]];portConstraint=eastwest;fillColor=#fff2cc;strokeColor=#d6b656;fontStyle=4" parent="C5G3hQH6Iopq-bTjkAd6-1" vertex="1">
          <mxGeometry y="110" width="281" height="70" as="geometry" />
        </mxCell>
        <mxCell id="C5G3hQH6Iopq-bTjkAd6-11" value="Vestuario" style="swimlane;fontStyle=0;align=center;verticalAlign=top;childLayout=stackLayout;horizontal=1;startSize=26;horizontalStack=0;resizeParent=1;resizeLast=0;collapsible=1;marginBottom=0;rounded=0;shadow=0;strokeWidth=1;fillColor=#fff2cc;strokeColor=#d6b656;" parent="WIyWlLk6GJQsqaUBKTNV-1" vertex="1">
          <mxGeometry x="900" y="44" width="290" height="210" as="geometry">
            <mxRectangle x="180" y="70" width="160" height="26" as="alternateBounds" />
          </mxGeometry>
        </mxCell>
        <mxCell id="C5G3hQH6Iopq-bTjkAd6-12" value="- idVestuario: number&#xa;- nicho: string&#xa;- genero: string&#xa;- marca: string&#xa;- tamanho: string&#xa;- valor: number&#xa;- quantidade: number" style="text;align=left;verticalAlign=top;spacingLeft=4;spacingRight=4;overflow=hidden;rotatable=0;points=[[0,0.5],[1,0.5]];portConstraint=eastwest;fillColor=#fff2cc;strokeColor=#d6b656;" parent="C5G3hQH6Iopq-bTjkAd6-11" vertex="1">
          <mxGeometry y="26" width="290" height="114" as="geometry" />
        </mxCell>
        <mxCell id="C5G3hQH6Iopq-bTjkAd6-19" value="+ listarVestuario(): Array &lt;Vestuario&gt;&#xa;+ cadastrarVestuario(vestuario:Vestuario): Boolean&#xa;+ removerVestuario(id_vestuario: number): Boolean&#xa;+ atualizarVestuario(vestuario:Vestuario): Boolean" style="text;align=left;verticalAlign=top;spacingLeft=4;spacingRight=4;overflow=hidden;rotatable=0;points=[[0,0.5],[1,0.5]];portConstraint=eastwest;fillColor=#fff2cc;strokeColor=#d6b656;fontStyle=4" parent="C5G3hQH6Iopq-bTjkAd6-11" vertex="1">
          <mxGeometry y="140" width="290" height="70" as="geometry" />
        </mxCell>
        <mxCell id="r8dWKE7d-awLqOog2h_B-10" value="" style="endArrow=none;html=1;rounded=0;exitX=0.998;exitY=0.979;exitDx=0;exitDy=0;exitPerimeter=0;entryX=0.007;entryY=0.09;entryDx=0;entryDy=0;entryPerimeter=0;" parent="WIyWlLk6GJQsqaUBKTNV-1" source="zkfFHV4jXpPFQw0GAbJ--1" target="C5G3hQH6Iopq-bTjkAd6-9" edge="1">
          <mxGeometry width="50" height="50" relative="1" as="geometry">
            <mxPoint x="680" y="130" as="sourcePoint" />
            <mxPoint x="491.405" y="195.40800000000002" as="targetPoint" />
          </mxGeometry>
        </mxCell>
        <mxCell id="r8dWKE7d-awLqOog2h_B-11" value="1.1" style="text;html=1;align=center;verticalAlign=middle;whiteSpace=wrap;rounded=0;" parent="WIyWlLk6GJQsqaUBKTNV-1" vertex="1">
          <mxGeometry x="350" y="170" width="60" height="30" as="geometry" />
        </mxCell>
        <mxCell id="r8dWKE7d-awLqOog2h_B-12" value="0.N" style="text;html=1;align=center;verticalAlign=middle;whiteSpace=wrap;rounded=0;" parent="WIyWlLk6GJQsqaUBKTNV-1" vertex="1">
          <mxGeometry x="430" y="134" width="60" height="30" as="geometry" />
        </mxCell>
        <mxCell id="r8dWKE7d-awLqOog2h_B-14" value="" style="endArrow=none;html=1;rounded=0;entryX=-0.01;entryY=0.873;entryDx=0;entryDy=0;entryPerimeter=0;" parent="WIyWlLk6GJQsqaUBKTNV-1" target="C5G3hQH6Iopq-bTjkAd6-12" edge="1">
          <mxGeometry width="50" height="50" relative="1" as="geometry">
            <mxPoint x="771" y="170" as="sourcePoint" />
            <mxPoint x="900.29" y="210.49399999999991" as="targetPoint" />
          </mxGeometry>
        </mxCell>
        <mxCell id="r8dWKE7d-awLqOog2h_B-15" value="0.N" style="text;html=1;align=center;verticalAlign=middle;whiteSpace=wrap;rounded=0;" parent="WIyWlLk6GJQsqaUBKTNV-1" vertex="1">
          <mxGeometry x="767" y="180" width="60" height="30" as="geometry" />
        </mxCell>
        <mxCell id="r8dWKE7d-awLqOog2h_B-16" value="1.N" style="text;html=1;align=center;verticalAlign=middle;whiteSpace=wrap;rounded=0;" parent="WIyWlLk6GJQsqaUBKTNV-1" vertex="1">
          <mxGeometry x="840" y="133" width="60" height="30" as="geometry" />
        </mxCell>
      </root>
    </mxGraphModel>
  </diagram>
</mxfile>
